<?xml version="1.0" encoding="UTF-8"?>
<svg id="Livello_1" xmlns="http://www.w3.org/2000/svg" version="1.1" viewBox="0 0 683.1 300">
  <!-- Generator: Adobe Illustrator 29.3.1, SVG Export Plug-In . SVG Version: 2.1.0 Build 151)  -->
  <defs>
    <style>
      .st0 {
        fill: #ff6b03;
      }
    </style>
  </defs>
  <g>
    <path d="M288.4,131.9c-5,1.8-7.8,2.4-10.9,2.4-8.4,0-14.7-3.3-18.7-7.2-4.7-4.7-7.3-11.3-7.3-17.6s3-13.4,7.3-17.8c4.3-4.4,10.7-7.5,18.3-7.5s6.1.4,11.3,2.5v15c-4.1-5-8.8-5.3-10.9-5.3-3.6,0-6.4,1.1-8.7,3.2-3,2.7-4.2,6.5-4.2,9.9s1.4,7,3.9,9.4c2.1,2,5.4,3.3,9,3.3s6.5-.2,10.9-5.1v14.9Z"/>
    <path d="M328,129c-4.3,4.2-9.3,5.4-14.5,5.4s-9.9-.9-14.4-5.4c-3.5-3.5-5-7.6-5-12s2.6-9.6,5-11.9c2.7-2.6,7.4-5.4,14.4-5.4s11.8,2.8,14.5,5.4c2.4,2.3,5,6.1,5,11.9s-1.4,8.5-5,12ZM308.3,111.7c-1.4,1.4-2.2,3.4-2.2,5.3s.9,3.8,2.2,5.2c1.4,1.4,3.3,2.2,5.2,2.2s3.8-.8,5.1-2.2c1.4-1.4,2.2-3.3,2.2-5.2s-.8-3.8-2.2-5.3c-1.3-1.2-3.3-2.1-5.1-2.1s-3.9.9-5.2,2.1Z"/>
    <path d="M339.6,100.9h11.6v3.9c2.7-3.3,6.5-4.5,9.7-4.5s4.5.5,6.2,1.4c2.4,1.2,3.7,3,4.5,4.6,1.3-2.3,3-3.7,4.4-4.5,2.3-1.3,4.6-1.6,6.7-1.6s6.3.4,9,3c2.9,2.8,3,6.7,3,8.9v21.1h-11.6v-16c0-3.4-.4-5.7-1.7-7-.7-.6-1.5-1.1-3-1.1s-2.4.4-3.4,1.3c-2,1.9-2.1,4.6-2.1,6.2v16.6h-11.6v-16c0-3.1-.2-5.6-1.5-7-1-1.1-2.3-1.3-3.5-1.3s-2.2.2-3.2,1.2c-2,2-2,5.1-2,7.1v16h-11.6v-32.4Z"/>
    <path d="M402.9,100.9h11.6v3.9c2.7-3.3,6.5-4.5,9.7-4.5s4.5.5,6.2,1.4c2.4,1.2,3.7,3,4.5,4.6,1.3-2.3,3-3.7,4.4-4.5,2.3-1.3,4.6-1.6,6.7-1.6s6.3.4,9,3c2.9,2.8,3,6.7,3,8.9v21.1h-11.6v-16c0-3.4-.4-5.7-1.7-7-.7-.6-1.5-1.1-3-1.1s-2.4.4-3.4,1.3c-2,1.9-2.1,4.6-2.1,6.2v16.6h-11.6v-16c0-3.1-.2-5.6-1.5-7-1-1.1-2.3-1.3-3.5-1.3s-2.2.2-3.2,1.2c-2,2-2,5.1-2,7.1v16h-11.6v-32.4Z"/>
    <path d="M477.8,100.9v18.1c0,1.3.2,3.3,1.7,4.7,1.2,1,2.7,1.2,4.1,1.2s2.8-.1,4.1-1.4c1.4-1.4,1.7-3.1,1.7-4.6v-18.1h11.6v20.2c0,2.7-.2,5.7-3.1,8.7-4,4.1-9.6,4.6-14,4.6s-10.8-.5-14.6-4.6c-2.5-2.6-3-5.5-3-8.6v-20.2h11.6Z"/>
    <path d="M509,100.9h11.6v4.1c3.2-4.2,7.5-4.8,10.3-4.8s6.9.8,9.6,3.5c2.8,2.7,3,5.5,3,9.1v20.6h-11.6v-16.4c0-1.9,0-4.7-1.4-6.3-1.1-1.2-2.5-1.4-3.7-1.4-1.8,0-3.3.6-4.3,1.5-1.2,1.1-1.9,3.2-1.9,5.1v17.4h-11.6v-32.4Z"/>
    <path d="M557.2,80.9c3.6,0,6.5,2.9,6.5,6.5s-2.9,6.5-6.5,6.5-6.5-2.9-6.5-6.5,2.9-6.5,6.5-6.5ZM563,100.9v32.4h-11.6v-32.4h11.6Z"/>
    <path d="M583.7,110.3v22.9h-11.6v-22.9h-3.7v-9.5h3.7v-10.6h11.6v10.6h6.6v9.5h-6.6Z"/>
    <path d="M608.1,128.8l-15.7-28h13.5l8.6,16.6,8.4-16.6h13.3l-26,49h-13l10.9-21Z"/>
    <path d="M273.3,171.9c3.6,0,8.3.6,11.8,4.3,2.8,2.8,4.1,7,4.1,10.9s-1.4,7.8-3.8,10.1c-1.9,1.8-4.4,2.9-6.7,3.3l15.1,19.8h-15.6l-12-18.5v18.5h-12.5v-48.3h19.6ZM266.3,193.6h2.4c1.9,0,4.6-.5,6.1-2,.9-.9,1.6-2.5,1.6-4.1s-.6-3-1.7-4.1c-1.2-1.2-3.3-1.9-6-1.9h-2.4v12Z"/>
    <path d="M332.4,206.2h-24.1c0,1.7.7,4.1,2,5.4.7.7,2.2,1.6,4.8,1.6s2.3,0,3.8-.9c.7-.4,1.5-1.2,2-2.2h11.1c-.5,1.8-1.5,4.3-3.9,6.7-2.4,2.3-6.2,4.5-13.2,4.5s-9.4-.9-13.4-4.9c-2.1-2.1-4.8-6.1-4.8-12.2s2-9.8,4.9-12.5c2.7-2.6,6.9-4.7,13.3-4.7s8.6.8,12.5,4.4c4.6,4.4,5.1,10,5.1,13.6v1.2ZM321.8,199.5c-.3-1.2-1-2.6-1.9-3.5-1.5-1.5-3.6-1.7-4.8-1.7-2,0-3.5.5-4.7,1.7-.8.9-1.5,2-1.7,3.5h13.1Z"/>
    <path d="M351.9,197.3v22.9h-11.6v-22.9h-3.7v-9.5h3.7v-10.6h11.6v10.6h6.6v9.5h-6.6Z"/>
    <path d="M388,187.8h11.6v32.4h-11.6v-3.5c-2.7,3.7-6.9,4.6-10.1,4.6s-7.8-1-11.7-5.1c-3.1-3.3-4.6-7-4.6-11.9s2.4-10.4,5-13,7-4.6,11.7-4.6,8.3,2.7,9.7,4.2v-3.1ZM375.8,198.7c-1.6,1.5-2.3,3.6-2.3,5.3s.8,3.9,2.2,5.3c1.2,1.2,3.3,2.2,5.2,2.2s3.8-.8,5.2-2.2c1-1,2.2-2.6,2.2-5.2s-.4-3.5-2.2-5.3c-1.1-1-2.7-2.1-5.2-2.1s-3.4.5-5.1,2.1Z"/>
    <path d="M413.3,167.8c3.6,0,6.5,2.9,6.5,6.5s-2.9,6.5-6.5,6.5-6.5-2.9-6.5-6.5,2.9-6.5,6.5-6.5ZM419.1,187.8v32.4h-11.6v-32.4h11.6Z"/>
    <path d="M438.6,167.4v52.8h-11.6v-52.8h11.6Z"/>
    <path d="M494,212.1h-17.5l-3.3,8.1h-13.3l18.5-48.3h13.7l18.2,48.3h-13.4l-3-8.1ZM490.7,202.5l-5.4-15.6-5.3,15.6h10.7Z"/>
    <path d="M520.7,167.8c3.6,0,6.5,2.9,6.5,6.5s-2.9,6.5-6.5,6.5-6.5-2.9-6.5-6.5,2.9-6.5,6.5-6.5ZM526.5,187.8v32.4h-11.6v-32.4h11.6Z"/>
  </g>
  <g>
    <g>
      <circle class="st0" cx="208.8" cy="216.1" r="5.3"/>
      <rect class="st0" x="183.7" y="172.5" width="8.9" height="44.9" transform="translate(459 203) rotate(135.7)"/>
    </g>
    <g>
      <circle class="st0" cx="192.2" cy="229" r="5.3"/>
      <rect class="st0" x="172.4" y="181.3" width="8.9" height="44.9" transform="translate(433.7 286.2) rotate(148.8)"/>
    </g>
    <g>
      <circle class="st0" cx="173.1" cy="237.8" r="5.3"/>
      <rect class="st0" x="159.4" y="187.3" width="8.9" height="44.9" transform="translate(384.9 357.9) rotate(161.8)"/>
    </g>
    <g>
      <circle class="st0" cx="152.5" cy="242" r="5.3"/>
      <rect class="st0" x="145.4" y="190.1" width="8.9" height="44.9" transform="translate(317.9 411.1) rotate(174.9)"/>
    </g>
    <g>
      <circle class="st0" cx="131.5" cy="241.5" r="5.3"/>
      <rect class="st0" x="131.1" y="189.8" width="8.9" height="44.9" transform="translate(240.2 441.3) rotate(-172)"/>
    </g>
    <g>
      <circle class="st0" cx="111.1" cy="236.2" r="5.3"/>
      <rect class="st0" x="117.3" y="186.2" width="8.9" height="44.9" transform="translate(160.2 447.1) rotate(-158.9)"/>
    </g>
    <g>
      <circle class="st0" cx="92.5" cy="226.4" r="5.3"/>
      <rect class="st0" x="104.7" y="179.5" width="8.9" height="44.9" transform="translate(85.8 430.4) rotate(-145.8)"/>
    </g>
    <g>
      <circle class="st0" cx="76.6" cy="212.7" r="5.3"/>
      <rect class="st0" x="93.8" y="170.2" width="8.9" height="44.9" transform="translate(23.4 395.5) rotate(-132.7)"/>
    </g>
    <g>
      <circle class="st0" cx="64.2" cy="195.7" r="5.3"/>
      <rect class="st0" x="85.4" y="158.7" width="8.9" height="44.9" transform="translate(-23.2 348.7) rotate(-119.6)"/>
    </g>
    <g>
      <circle class="st0" cx="55.9" cy="176.4" r="5.3"/>
      <rect class="st0" x="79.8" y="145.5" width="8.9" height="44.9" transform="translate(-52.8 296.5) rotate(-106.5)"/>
    </g>
    <g>
      <circle class="st0" cx="52.3" cy="155.7" r="5.3"/>
      <rect class="st0" x="77.3" y="131.5" width="8.9" height="44.9" transform="translate(-66.9 244.7) rotate(-93.4)"/>
    </g>
    <g>
      <circle class="st0" cx="53.4" cy="134.7" r="5.3"/>
      <rect class="st0" x="78.1" y="117.2" width="8.9" height="44.9" transform="translate(-68.9 197.6) rotate(-80.3)"/>
    </g>
    <g>
      <circle class="st0" cx="59.3" cy="114.5" r="5.3"/>
      <rect class="st0" x="82.1" y="103.5" width="8.9" height="44.9" transform="translate(-63 157) rotate(-67.2)"/>
    </g>
    <g>
      <circle class="st0" cx="69.6" cy="96.1" r="5.3"/>
      <rect class="st0" x="89.1" y="91" width="8.9" height="44.9" transform="translate(-53.2 122.8) rotate(-54.2)"/>
    </g>
    <g>
      <circle class="st0" cx="83.8" cy="80.6" r="5.3"/>
      <rect class="st0" x="98.7" y="80.5" width="8.9" height="44.9" transform="translate(-42.2 93.1) rotate(-41.1)"/>
    </g>
    <g>
      <circle class="st0" cx="101.1" cy="68.7" r="5.3"/>
      <rect class="st0" x="110.5" y="72.4" width="8.9" height="44.9" transform="translate(-31 65) rotate(-28)"/>
    </g>
    <g>
      <circle class="st0" cx="120.7" cy="61" r="5.3"/>
      <rect class="st0" x="123.8" y="67.2" width="8.9" height="44.9" transform="translate(-18.7 35.9) rotate(-14.9)"/>
    </g>
    <g>
      <circle class="st0" cx="141.5" cy="58" r="5.3"/>
      <rect class="st0" x="137.9" y="65.1" width="8.9" height="44.9" transform="translate(-2.7 4.5) rotate(-1.8)"/>
    </g>
    <g>
      <circle class="st0" cx="162.4" cy="59.7" r="5.3"/>
      <rect class="st0" x="152.2" y="66.3" width="8.9" height="44.9" transform="translate(20.4 -29) rotate(11.3)"/>
    </g>
    <g>
      <circle class="st0" cx="182.4" cy="66.2" r="5.3"/>
      <rect class="st0" x="165.8" y="70.7" width="8.9" height="44.9" transform="translate(53.6 -62) rotate(24.4)"/>
    </g>
    <g>
      <circle class="st0" cx="200.5" cy="77" r="5.3"/>
      <rect class="st0" x="178" y="78" width="8.9" height="44.9" transform="translate(98.8 -90.3) rotate(37.5)"/>
    </g>
    <g>
      <circle class="st0" cx="215.6" cy="91.6" r="5.3"/>
      <rect class="st0" x="188.3" y="87.9" width="8.9" height="44.9" transform="translate(155.6 -108.6) rotate(50.6)"/>
    </g>
  </g>
  <circle class="st0" cx="144.5" cy="149.2" r="13.1"/>
</svg>