<?xml version="1.0" encoding="UTF-8"?>
<svg id="Livello_1" xmlns="http://www.w3.org/2000/svg" version="1.1" viewBox="0 0 1080 300">
  <!-- Generator: Adobe Illustrator 29.3.1, SVG Export Plug-In . SVG Version: 2.1.0 Build 151)  -->
  <defs>
    <style>
      .st0 {
        fill: #ff6b03;
      }
    </style>
  </defs>
  <g fill="#FDFCF8">
    <path d="M274.8,182.4c-5.7,2.1-8.8,2.7-12.4,2.7-9.6,0-16.8-3.8-21.3-8.3-5.4-5.4-8.3-12.9-8.3-20.1s3.4-15.3,8.3-20.3c4.9-5,12.2-8.6,20.8-8.6s6.9.4,12.9,2.8v17.1c-4.6-5.7-10.1-6-12.5-6-4.1,0-7.3,1.2-9.9,3.6-3.4,3.1-4.8,7.4-4.8,11.3s1.6,8,4.5,10.7c2.4,2.2,6.2,3.8,10.2,3.8s7.4-.2,12.5-5.8v16.9Z"/>
    <path d="M319.7,179c-4.9,4.8-10.6,6.1-16.5,6.1s-11.3-1.1-16.4-6.1c-4-4-5.7-8.7-5.7-13.6s3-10.9,5.7-13.5c3.1-3,8.4-6.1,16.4-6.1s13.5,3.2,16.5,6.1c2.7,2.6,5.7,6.9,5.7,13.5s-1.7,9.7-5.7,13.6ZM297.4,159.4c-1.7,1.6-2.6,3.9-2.6,6s1.1,4.4,2.6,5.9c1.6,1.6,3.7,2.5,5.9,2.5s4.3-.9,5.9-2.5c1.6-1.6,2.6-3.7,2.6-5.9s-.9-4.4-2.6-6c-1.5-1.4-3.8-2.4-5.9-2.4s-4.5,1-5.9,2.4Z"/>
    <path d="M333,147h13.2v4.5c3.1-3.8,7.4-5.1,11.1-5.1s5.1.6,7.1,1.7c2.7,1.4,4.2,3.5,5.1,5.3,1.5-2.6,3.4-4.2,5-5.1,2.6-1.5,5.2-1.8,7.7-1.8s7.2.4,10.2,3.4c3.3,3.2,3.5,7.6,3.5,10.2v24h-13.2v-18.2c0-3.9-.4-6.5-1.9-7.9-.7-.7-1.7-1.2-3.5-1.2s-2.7.4-3.9,1.5c-2.2,2.1-2.4,5.2-2.4,7v18.9h-13.2v-18.2c0-3.6-.2-6.4-1.7-7.9-1.2-1.2-2.6-1.5-4-1.5s-2.6.2-3.6,1.3c-2.3,2.2-2.3,5.8-2.3,8.1v18.2h-13.2v-36.9Z"/>
    <path d="M405.1,147h13.2v4.5c3.1-3.8,7.4-5.1,11.1-5.1s5.1.6,7.1,1.7c2.7,1.4,4.2,3.5,5.1,5.3,1.5-2.6,3.4-4.2,5-5.1,2.6-1.5,5.2-1.8,7.7-1.8s7.2.4,10.2,3.4c3.3,3.2,3.5,7.6,3.5,10.2v24h-13.2v-18.2c0-3.9-.4-6.5-1.9-7.9-.7-.7-1.7-1.2-3.5-1.2s-2.7.4-3.9,1.5c-2.2,2.1-2.4,5.2-2.4,7v18.9h-13.2v-18.2c0-3.6-.2-6.4-1.7-7.9-1.2-1.2-2.6-1.5-4-1.5s-2.6.2-3.6,1.3c-2.3,2.2-2.3,5.8-2.3,8.1v18.2h-13.2v-36.9Z"/>
    <path d="M490.3,147v20.6c0,1.5.2,3.8,2,5.4,1.3,1.2,3.1,1.4,4.6,1.4s3.2-.2,4.7-1.6c1.7-1.7,1.9-3.5,1.9-5.2v-20.6h13.2v23c0,3.1-.2,6.5-3.5,9.9-4.5,4.7-10.9,5.2-15.9,5.2s-12.3-.6-16.7-5.3c-2.8-3-3.5-6.3-3.5-9.8v-23h13.2Z"/>
    <path d="M525.8,147h13.2v4.6c3.6-4.8,8.5-5.4,11.7-5.4s7.8.9,10.9,4c3.1,3.1,3.5,6.3,3.5,10.3v23.4h-13.2v-18.7c0-2.1,0-5.4-1.7-7.2-1.2-1.3-2.9-1.6-4.2-1.6-2.1,0-3.8.7-4.9,1.7-1.3,1.2-2.1,3.6-2.1,5.9v19.8h-13.2v-36.9Z"/>
    <path d="M580.7,124.2c4.1,0,7.4,3.3,7.4,7.4s-3.3,7.4-7.4,7.4-7.4-3.3-7.4-7.4,3.3-7.4,7.4-7.4ZM587.3,147v36.9h-13.2v-36.9h13.2Z"/>
    <path d="M610.9,157.8v26.1h-13.2v-26.1h-4.2v-10.8h4.2v-12.1h13.2v12.1h7.5v10.8h-7.5Z"/>
    <path d="M638.7,178.9l-17.8-31.9h15.4l9.8,18.9,9.6-18.9h15.1l-29.6,55.8h-14.8l12.4-23.9Z"/>
    <path d="M718,128.8c4.1,0,9.4.7,13.5,4.9,3.1,3.2,4.7,8,4.7,12.4s-1.7,8.8-4.4,11.5c-2.1,2.1-5,3.3-7.6,3.8l17.3,22.5h-17.7l-13.7-21.1v21.1h-14.3v-55.1h22.3ZM710,153.5h2.7c2.1,0,5.2-.6,6.9-2.2,1.1-1.1,1.8-2.9,1.8-4.6s-.7-3.5-1.9-4.6c-1.3-1.3-3.7-2.1-6.8-2.1h-2.7v13.6Z"/>
    <path d="M785.4,167.9h-27.5c0,2,.7,4.6,2.3,6.2s2.5,1.8,5.4,1.8,2.6,0,4.3-1c.8-.5,1.7-1.3,2.3-2.5h12.6c-.6,2.1-1.7,5-4.5,7.6-2.7,2.6-7,5.1-15,5.1s-10.7-1.1-15.3-5.6c-2.4-2.4-5.4-6.9-5.4-14s2.3-11.1,5.5-14.3c3.1-3,7.8-5.4,15.1-5.4s9.8.9,14.2,5c5.2,5,5.9,11.4,5.9,15.5v1.4ZM773.3,160.3c-.3-1.4-1.2-3-2.1-4-1.7-1.7-4.1-2-5.5-2-2.2,0-4,.6-5.4,2-.9,1-1.7,2.3-2,4h14.9Z"/>
    <path d="M807.6,157.8v26.1h-13.2v-26.1h-4.2v-10.8h4.2v-12.1h13.2v12.1h7.5v10.8h-7.5Z"/>
    <path d="M848.6,147h13.2v36.9h-13.2v-4c-3.1,4.2-7.8,5.3-11.5,5.3s-8.8-1.2-13.3-5.9c-3.5-3.8-5.3-8-5.3-13.5s2.7-11.8,5.7-14.8c3.1-3.1,8-5.2,13.3-5.2s9.5,3.1,11.1,4.8v-3.5ZM834.7,159.4c-1.8,1.7-2.6,4.1-2.6,6s.9,4.5,2.6,6c1.4,1.3,3.7,2.5,5.9,2.5s4.3-.9,5.9-2.6c1.2-1.2,2.5-3,2.5-5.9s-.5-4-2.6-6c-1.2-1.2-3.1-2.4-5.9-2.4s-3.9.6-5.8,2.4Z"/>
    <path d="M877.5,124.2c4.1,0,7.4,3.3,7.4,7.4s-3.3,7.4-7.4,7.4-7.4-3.3-7.4-7.4,3.3-7.4,7.4-7.4ZM884.1,147v36.9h-13.2v-36.9h13.2Z"/>
    <path d="M906.3,123.7v60.2h-13.2v-60.2h13.2Z"/>
    <path d="M969.4,174.7h-20l-3.7,9.2h-15.1l21.1-55.1h15.6l20.7,55.1h-15.3l-3.4-9.2ZM965.6,163.8l-6.2-17.8-6,17.8h12.2Z"/>
    <path d="M999.7,124.2c4.1,0,7.4,3.3,7.4,7.4s-3.3,7.4-7.4,7.4-7.4-3.3-7.4-7.4,3.3-7.4,7.4-7.4ZM1006.3,147v36.9h-13.2v-36.9h13.2Z"/>
  </g>
  <g>
    <g>
      <circle class="st0" cx="223.9" cy="216.9" r="5.3"/>
      <rect class="st0" x="199.1" y="173.9" width="8.8" height="44.4" transform="translate(486.1 194) rotate(135.7)"/>
    </g>
    <g>
      <circle class="st0" cx="207.5" cy="229.7" r="5.3"/>
      <rect class="st0" x="187.9" y="182.5" width="8.8" height="44.4" transform="translate(463 279.9) rotate(148.8)"/>
    </g>
    <g>
      <circle class="st0" cx="188.6" cy="238.4" r="5.3"/>
      <rect class="st0" x="175.1" y="188.4" width="8.8" height="44.4" transform="translate(415.7 354.8) rotate(161.8)"/>
    </g>
    <g>
      <circle class="st0" cx="168.3" cy="242.5" r="5.3"/>
      <rect class="st0" x="161.3" y="191.3" width="8.8" height="44.4" transform="translate(349.6 411.4) rotate(174.9)"/>
    </g>
    <g>
      <circle class="st0" cx="147.5" cy="242" r="5.3"/>
      <rect class="st0" x="147.2" y="190.9" width="8.8" height="44.4" transform="translate(271.9 445.2) rotate(-172)"/>
    </g>
    <g>
      <circle class="st0" cx="127.4" cy="236.8" r="5.3"/>
      <rect class="st0" x="133.5" y="187.3" width="8.8" height="44.4" transform="translate(191 454.6) rotate(-158.9)"/>
    </g>
    <g>
      <circle class="st0" cx="109" cy="227.1" r="5.3"/>
      <rect class="st0" x="121" y="180.8" width="8.8" height="44.4" transform="translate(115 441.3) rotate(-145.8)"/>
    </g>
    <g>
      <circle class="st0" cx="93.2" cy="213.6" r="5.3"/>
      <rect class="st0" x="110.3" y="171.6" width="8.8" height="44.4" transform="translate(50.1 409.4) rotate(-132.7)"/>
    </g>
    <g>
      <circle class="st0" cx="80.9" cy="196.8" r="5.3"/>
      <rect class="st0" x="101.9" y="160.1" width="8.8" height="44.4" transform="translate(.4 364.9) rotate(-119.6)"/>
    </g>
    <g>
      <circle class="st0" cx="72.8" cy="177.6" r="5.3"/>
      <rect class="st0" x="96.4" y="147.2" width="8.8" height="44.4" transform="translate(-32.9 314.1) rotate(-106.5)"/>
    </g>
    <g>
      <circle class="st0" cx="69.2" cy="157.2" r="5.3"/>
      <rect class="st0" x="94" y="133.2" width="8.8" height="44.4" transform="translate(-50.9 262.9) rotate(-93.4)"/>
    </g>
    <g>
      <circle class="st0" cx="70.3" cy="136.4" r="5.3"/>
      <rect class="st0" x="94.7" y="119.1" width="8.8" height="44.4" transform="translate(-56.8 215.3) rotate(-80.3)"/>
    </g>
    <g>
      <circle class="st0" cx="76.1" cy="116.4" r="5.3"/>
      <rect class="st0" x="98.7" y="105.6" width="8.8" height="44.4" transform="translate(-54.6 173.4) rotate(-67.2)"/>
    </g>
    <g>
      <circle class="st0" cx="86.3" cy="98.3" r="5.3"/>
      <rect class="st0" x="105.6" y="93.3" width="8.8" height="44.4" transform="translate(-48 137) rotate(-54.2)"/>
    </g>
    <g>
      <circle class="st0" cx="100.3" cy="83" r="5.3"/>
      <rect class="st0" x="115.1" y="82.8" width="8.8" height="44.4" transform="translate(-39.6 104.3) rotate(-41.1)"/>
    </g>
    <g>
      <circle class="st0" cx="117.5" cy="71.2" r="5.3"/>
      <rect class="st0" x="126.8" y="74.8" width="8.8" height="44.4" transform="translate(-30.2 72.8) rotate(-28)"/>
    </g>
    <g>
      <circle class="st0" cx="136.8" cy="63.6" r="5.3"/>
      <rect class="st0" x="139.9" y="69.7" width="8.8" height="44.4" transform="translate(-18.7 40.1) rotate(-14.9)"/>
    </g>
    <g>
      <circle class="st0" cx="157.4" cy="60.6" r="5.3"/>
      <rect class="st0" x="153.9" y="67.6" width="8.8" height="44.4" transform="translate(-2.7 5) rotate(-1.8)"/>
    </g>
    <g>
      <circle class="st0" cx="178.1" cy="62.3" r="5.3"/>
      <rect class="st0" x="168" y="68.8" width="8.8" height="44.4" transform="translate(21.2 -32) rotate(11.3)"/>
    </g>
    <g>
      <circle class="st0" cx="197.9" cy="68.7" r="5.3"/>
      <rect class="st0" x="181.4" y="73.1" width="8.8" height="44.4" transform="translate(55.9 -68.2) rotate(24.4)"/>
    </g>
    <g>
      <circle class="st0" cx="215.7" cy="79.4" r="5.3"/>
      <rect class="st0" x="193.5" y="80.4" width="8.8" height="44.4" transform="translate(103.3 -99.3) rotate(37.5)"/>
    </g>
    <g>
      <circle class="st0" cx="230.7" cy="93.8" r="5.3"/>
      <rect class="st0" x="203.7" y="90.2" width="8.8" height="44.4" transform="translate(162.7 -119.7) rotate(50.6)"/>
    </g>
  </g>
  <circle class="st0" cx="160.4" cy="150.8" r="13"/>
</svg>