<?xml version="1.0" encoding="UTF-8"?>
<svg xmlns="http://www.w3.org/2000/svg" viewBox="38 44 193 213">
  <defs>
    <style>.st0 { fill: #040407; }</style>
  </defs>
  <g>
    <g>
      <circle class="st0" cx="208.8" cy="216.1" r="5.3"/>
      <rect class="st0" x="183.7" y="172.5" width="8.9" height="44.9" transform="translate(459 203) rotate(135.7)"/>
    </g>
    <g>
      <circle class="st0" cx="192.2" cy="229" r="5.3"/>
      <rect class="st0" x="172.4" y="181.3" width="8.9" height="44.9" transform="translate(433.7 286.2) rotate(148.8)"/>
    </g>
    <g>
      <circle class="st0" cx="173.1" cy="237.8" r="5.3"/>
      <rect class="st0" x="159.4" y="187.3" width="8.9" height="44.9" transform="translate(384.9 357.9) rotate(161.8)"/>
    </g>
    <g>
      <circle class="st0" cx="152.5" cy="242" r="5.3"/>
      <rect class="st0" x="145.4" y="190.1" width="8.9" height="44.9" transform="translate(317.9 411.1) rotate(174.9)"/>
    </g>
    <g>
      <circle class="st0" cx="131.5" cy="241.5" r="5.3"/>
      <rect class="st0" x="131.1" y="189.8" width="8.9" height="44.9" transform="translate(240.2 441.3) rotate(-172)"/>
    </g>
    <g>
      <circle class="st0" cx="111.1" cy="236.2" r="5.3"/>
      <rect class="st0" x="117.3" y="186.2" width="8.9" height="44.9" transform="translate(160.2 447.1) rotate(-158.9)"/>
    </g>
    <g>
      <circle class="st0" cx="92.5" cy="226.4" r="5.3"/>
      <rect class="st0" x="104.7" y="179.5" width="8.9" height="44.9" transform="translate(85.8 430.4) rotate(-145.8)"/>
    </g>
    <g>
      <circle class="st0" cx="76.6" cy="212.7" r="5.3"/>
      <rect class="st0" x="93.8" y="170.2" width="8.9" height="44.9" transform="translate(23.4 395.5) rotate(-132.7)"/>
    </g>
    <g>
      <circle class="st0" cx="64.2" cy="195.7" r="5.3"/>
      <rect class="st0" x="85.4" y="158.7" width="8.9" height="44.9" transform="translate(-23.2 348.7) rotate(-119.6)"/>
    </g>
    <g>
      <circle class="st0" cx="55.9" cy="176.4" r="5.3"/>
      <rect class="st0" x="79.8" y="145.5" width="8.9" height="44.9" transform="translate(-52.8 296.5) rotate(-106.5)"/>
    </g>
    <g>
      <circle class="st0" cx="52.3" cy="155.7" r="5.3"/>
      <rect class="st0" x="77.3" y="131.5" width="8.9" height="44.9" transform="translate(-66.9 244.7) rotate(-93.4)"/>
    </g>
    <g>
      <circle class="st0" cx="53.4" cy="134.7" r="5.3"/>
      <rect class="st0" x="78.1" y="117.2" width="8.9" height="44.9" transform="translate(-68.9 197.6) rotate(-80.3)"/>
    </g>
    <g>
      <circle class="st0" cx="59.3" cy="114.5" r="5.3"/>
      <rect class="st0" x="82.1" y="103.5" width="8.9" height="44.9" transform="translate(-63 157) rotate(-67.2)"/>
    </g>
    <g>
      <circle class="st0" cx="69.6" cy="96.1" r="5.3"/>
      <rect class="st0" x="89.1" y="91" width="8.9" height="44.9" transform="translate(-53.2 122.8) rotate(-54.2)"/>
    </g>
    <g>
      <circle class="st0" cx="83.8" cy="80.6" r="5.3"/>
      <rect class="st0" x="98.7" y="80.5" width="8.9" height="44.9" transform="translate(-42.2 93.1) rotate(-41.1)"/>
    </g>
    <g>
      <circle class="st0" cx="101.1" cy="68.7" r="5.3"/>
      <rect class="st0" x="110.5" y="72.4" width="8.9" height="44.9" transform="translate(-31 65) rotate(-28)"/>
    </g>
    <g>
      <circle class="st0" cx="120.7" cy="61" r="5.3"/>
      <rect class="st0" x="123.8" y="67.2" width="8.9" height="44.9" transform="translate(-18.7 35.9) rotate(-14.9)"/>
    </g>
    <g>
      <circle class="st0" cx="141.5" cy="58" r="5.3"/>
      <rect class="st0" x="137.9" y="65.1" width="8.9" height="44.9" transform="translate(-2.7 4.5) rotate(-1.8)"/>
    </g>
    <g>
      <circle class="st0" cx="162.4" cy="59.7" r="5.3"/>
      <rect class="st0" x="152.2" y="66.3" width="8.9" height="44.9" transform="translate(20.4 -29) rotate(11.3)"/>
    </g>
    <g>
      <circle class="st0" cx="182.4" cy="66.2" r="5.3"/>
      <rect class="st0" x="165.8" y="70.7" width="8.9" height="44.9" transform="translate(53.6 -62) rotate(24.4)"/>
    </g>
    <g>
      <circle class="st0" cx="200.5" cy="77" r="5.3"/>
      <rect class="st0" x="178" y="78" width="8.9" height="44.9" transform="translate(98.8 -90.3) rotate(37.5)"/>
    </g>
    <g>
      <circle class="st0" cx="215.6" cy="91.6" r="5.3"/>
      <rect class="st0" x="188.3" y="87.9" width="8.9" height="44.9" transform="translate(155.6 -108.6) rotate(50.6)"/>
    </g>
  </g>
</svg>